<svg width="259" height="114" viewBox="0 0 259 114" fill="none" xmlns="http://www.w3.org/2000/svg">
<path d="M104.14 5.63349C79.6653 10.5744 54.373 16.0861 33.3189 30.2232C19.1372 39.7454 2.97936 55.409 0.829081 73.3192C-1.78353 95.0814 20.1905 106.726 38.3098 110.147C63.6944 114.939 90.452 114.599 116.004 111.545C142.088 108.325 167.721 102.154 192.412 93.1502C211.282 86.3451 231.455 78.4425 245.471 63.4805C256.399 51.8155 263.425 32.6079 253.909 17.9209C243.662 2.10571 217.378 1.5795 200.756 0.487583C147.297 -2.82686 94.3817 12.8247 51.3336 44.6846C48.9634 46.4398 51.4765 50.2984 53.8657 48.5283C85.5236 25.0215 122.85 10.3238 162.04 5.93283C181.253 3.76181 200.67 4.17304 219.773 7.15558C229.777 8.74573 241.135 10.3549 248.201 18.2502C256.811 27.8711 254.258 42.82 247.953 52.9574C238.351 68.3979 220.349 77.2731 204.072 83.8477C184.868 91.6568 165.024 97.7909 144.763 102.181C122.81 106.966 100.394 109.299 77.9264 109.137C57.3367 108.905 26.8364 109.287 11.8383 92.6793C-7.89374 70.8298 19.966 43.0896 38.1577 31.3442C58.1606 18.4295 81.6773 12.5575 104.408 6.43604C104.944 6.29159 104.66 5.52851 104.14 5.63349Z" fill="#FF512F"/>
</svg>
